# xmcd
#
# Track frame offsets:
#       150
#       12330
#       23090
#       37795
#       46977
#       70537
#       89772
#       99215
#       114607
#       125020
#
# Disc length: 1867 seconds
#
# Revision: 1
# Processed by: cddbd v1.5.2PL0 Copyright (c) Steve Scherf et al.
# Submitted via: FreeDbEdit v0.1
#
DISCID=7607490a
DTITLE=Various Artist - A Country Christmas With the Stars of Branson
DYEAR=1900
DGENRE=Country
TTITLE0=Mickey Gilley - Joy to the World
TTITLE1=Boxcar Willie - Deck the Halls
TTITLE2=Louise Mandrell - All I Want for Christmas (Deer Is You)
TTITLE3=Tom T. Hall - O Christmas Tree
TTITLE4=Larry Gatlin - O Holy Night
TTITLE5=Mickey Gilley - O Little Town of Bethlehem
TTITLE6=Boxcar Willie - Up on the Housetop
TTITLE7=Tom T. Hall - Jolly Old St. Nicholas
TTITLE8=Larry Gatlin - I Heard the Bells on Christmas Day
TTITLE9=Louise Mandrell w/Pedro Tomas - Silent Night
EXTD=
EXTT0=
EXTT1=
EXTT2=
EXTT3=
EXTT4=
EXTT5=
EXTT6=
EXTT7=
EXTT8=
EXTT9=
PLAYORDER=
